<?xml version="1.0" encoding="iso-8859-1"?>
<!-- Generator: Adobe Illustrator 19.0.0, SVG Export Plug-In . SVG Version: 6.00 Build 0)  -->
<svg version="1.1" id="Capa_1" xmlns="http://www.w3.org/2000/svg" xmlns:xlink="http://www.w3.org/1999/xlink" x="0px" y="0px"
	 viewBox="0 0 512 512" style="enable-background:new 0 0 512 512;" xml:space="preserve">
<path style="fill:#99CFD7;" d="M386.074,251.82H26.914v-28.276h0.053h-0.053l13.38-45.469c3.572-12.139,14.999-20.508,28.001-20.508
	h241.679c11.335,0,22.104,4.809,29.481,13.165l46.62,52.812L386.074,251.82L386.074,251.82z"/>
<path style="fill:#85BBC8;" d="M56.035,223.545v28.276H26.914v-28.276h0.053h-0.053l13.38-45.469
	c3.572-12.139,14.999-20.508,28.001-20.508h29.121c-13.002,0-24.429,8.369-28.001,20.508L56.035,223.545h0.053H56.035z"/>
<path style="fill:#524A56;" d="M469.303,236.792c20.297,3.231,35.197,20.262,35.197,40.234l0,0c0,22.517-18.799,40.771-41.99,40.771
	H26.914c-10.722,0-19.414-8.44-19.414-18.851v-56.552c0-10.411,8.692-18.851,19.414-18.851h359.16L469.303,236.792z"/>
<path style="fill:#41313B;" d="M63.801,317.797H26.914c-10.722,0-19.414-8.44-19.414-18.851v-56.552
	c0-10.411,8.692-18.851,19.414-18.851h36.887c-10.722,0-19.414,8.44-19.414,18.851v56.552
	C44.387,309.357,53.079,317.797,63.801,317.797z"/>
<path style="fill:#A18DAA;" d="M395.781,218.671v0.321c0,7.719-6.519,13.977-14.561,13.977h-24.268
	c-5.361,0-9.707-4.172-9.707-9.318v-9.64c0-5.146,4.346-9.318,9.707-9.318h24.268C389.262,204.693,395.781,210.951,395.781,218.671z
	"/>
<path style="fill:#F4925A;" d="M22.061,280.096H7.5V251.82h14.561c8.042,0,14.561,6.33,14.561,14.138l0,0
	C36.621,273.766,30.102,280.096,22.061,280.096z"/>
<path style="fill:#9D9F9C;" d="M144.369,313.084c0,23.424-19.557,42.414-43.682,42.414s-43.682-18.989-43.682-42.414
	s19.557-42.414,43.682-42.414S144.369,289.66,144.369,313.084z M410.342,270.671c-24.125,0-43.682,18.989-43.682,42.414
	s19.557,42.414,43.682,42.414s43.682-18.989,43.682-42.414S434.466,270.671,410.342,270.671z"/>
<path style="fill:#DCE5DF;" d="M115.248,313.084c0,7.808-6.519,14.138-14.561,14.138s-14.561-6.33-14.561-14.138
	s6.519-14.138,14.561-14.138S115.248,305.276,115.248,313.084z M410.342,298.946c-8.042,0-14.561,6.33-14.561,14.138
	s6.519,14.138,14.561,14.138s14.561-6.33,14.561-14.138S418.383,298.946,410.342,298.946z"/>
<path d="M470.466,229.142l-67.197-10.538c-0.137-11.698-9.686-21.176-21.416-21.176h-9.069l-27.744-30.963
	C336.232,156.637,323.451,151,309.974,151h-143.89c-4.142,0-7.5,3.358-7.5,7.5s3.358,7.5,7.5,7.5h115.42v50h-23.886
	c-4.142,0-7.5,3.358-7.5,7.5s3.358,7.5,7.5,7.5h83.918c2.761,5.496,8.437,9.286,14.996,9.286h25.32
	c6.416,0,12.167-2.849,16.098-7.331l70.191,11.007c11.616,1.822,21.015,8.922,25.674,18.468h-20.379c-4.143,0-7.5,3.358-7.5,7.5
	s3.357,7.5,7.5,7.5h23.529c-0.691,17.44-15.877,31.428-34.456,31.428h-1.08c-1.543-25.851-23.864-46.428-51.089-46.428
	s-49.546,20.577-51.089,46.428H151.777c-1.543-25.851-23.864-46.428-51.089-46.428s-49.546,20.577-51.089,46.428H26.914
	c-6.569,0-11.914-4.966-11.914-11.071v-11.071h7.061c12.164,0,22.061-9.613,22.061-21.429s-9.896-21.429-22.061-21.429H15v-1.786
	c0-6.1,5.337-11.063,11.899-11.071c0.006,0,0.012,0.001,0.018,0.001c0.008,0,0.016-0.002,0.024-0.002h206.085
	c4.142,0,7.5-3.358,7.5-7.5s-3.358-7.5-7.5-7.5H112.07v-50h27.263c4.142,0,7.5-3.358,7.5-7.5s-3.358-7.5-7.5-7.5H68.294
	c-16.223,0-30.692,10.51-35.188,25.558L21.144,216.61C9.068,219.176,0,229.614,0,242.071v55.714
	c0,14.376,12.074,26.071,26.914,26.071h24.167C56.713,345.18,76.816,361,100.688,361s43.974-15.82,49.606-37.143h210.442
	C366.367,345.18,386.47,361,410.342,361s43.974-15.82,49.606-37.143h2.563c27.288,0,49.489-21.383,49.489-47.667
	C512,252.703,494.532,232.917,470.466,229.142z M296.504,166h13.47c9.22,0,17.929,3.818,23.895,10.476l19.119,21.338
	c-7.558,1.632-13.241,8.362-13.241,16.401V216h-43.242L296.504,166L296.504,166z M381.853,225.286h-25.32
	c-0.985,0-1.786-0.801-1.786-1.786v-9.286c0-0.984,0.801-1.786,1.786-1.786h25.32c3.545,0,6.429,2.884,6.429,6.428
	C388.281,222.402,385.397,225.286,381.853,225.286z M47.479,180.851C50.092,172.107,58.651,166,68.294,166H97.07v50H36.982
	L47.479,180.851z M22.061,258.857c3.893,0,7.061,2.884,7.061,6.429s-3.167,6.429-7.061,6.429H15v-12.857L22.061,258.857
	L22.061,258.857z M100.688,346c-19.951,0-36.182-15.38-36.182-34.286s16.231-34.286,36.182-34.286s36.182,15.38,36.182,34.286
	S120.638,346,100.688,346z M410.342,346c-19.95,0-36.182-15.38-36.182-34.286s16.231-34.286,36.182-34.286
	s36.182,15.38,36.182,34.286S430.292,346,410.342,346z M100.688,290.286c-12.164,0-22.061,9.613-22.061,21.429
	s9.896,21.429,22.061,21.429s22.061-9.613,22.061-21.429S112.852,290.286,100.688,290.286z M100.688,318.143
	c-3.893,0-7.061-2.884-7.061-6.429s3.167-6.429,7.061-6.429s7.061,2.884,7.061,6.429S104.581,318.143,100.688,318.143z
	 M410.342,290.286c-12.164,0-22.061,9.613-22.061,21.429s9.896,21.429,22.061,21.429s22.061-9.613,22.061-21.429
	S422.506,290.286,410.342,290.286z M410.342,318.143c-3.894,0-7.061-2.884-7.061-6.429s3.167-6.429,7.061-6.429
	s7.061,2.884,7.061,6.429S414.235,318.143,410.342,318.143z"/>
<g>
</g>
<g>
</g>
<g>
</g>
<g>
</g>
<g>
</g>
<g>
</g>
<g>
</g>
<g>
</g>
<g>
</g>
<g>
</g>
<g>
</g>
<g>
</g>
<g>
</g>
<g>
</g>
<g>
</g>
</svg>
